{
	"asset":{
		"generator":"Khronos glTF Blender I/O v4.3.47",
		"version":"2.0"
	},
	"scene":0,
	"scenes":[
		{
			"name":"Scene",
			"nodes":[
				0,
				1,
				2,
				3,
				4,
				5,
				6
			]
		}
	],
	"nodes":[
		{
			"mesh":0,
			"name":"superieur",
			"scale":[
				0.9600000977516174,
				0.03999999910593033,
				0.8500000238418579
			],
			"translation":[
				0,
				0.009999999776482582,
				0
			]
		},
		{
			"mesh":1,
			"name":"cover avant",
			"scale":[
				0.8399999737739563,
				1,
				0.8399999737739563
			],
			"translation":[
				0.10999999940395355,
				0.15579499304294586,
				0
			]
		},
		{
			"mesh":2,
			"name":"inferieur",
			"scale":[
				0.9549999833106995,
				0.03999999910593033,
				0.8399999737739563
			],
			"translation":[
				-0.004999999888241291,
				0,
				0
			]
		},
		{
			"mesh":3,
			"name":"cover arriere",
			"rotation":[
				0,
				0,
				1,
				4.371138828673793e-08
			],
			"scale":[
				0.9449999928474426,
				1,
				0.8299999833106995
			],
			"translation":[
				-0.004999999888241291,
				-0.14453400671482086,
				0
			]
		},
		{
			"mesh":4,
			"name":"lodder",
			"scale":[
				0.9449999928474426,
				0.03999999910593033,
				0.8299999833106995
			],
			"translation":[
				-0.004999999888241291,
				0.009999999776482582,
				0
			]
		},
		{
			"mesh":5,
			"name":"CD",
			"scale":[
				0.8128830194473267,
				0.0024999999441206455,
				0.8128826022148132
			],
			"translation":[
				0.11071500182151794,
				-0.008860575035214424,
				0
			]
		},
		{
			"mesh":6,
			"name":"imagecd",
			"scale":[
				0.8128830194473267,
				1,
				0.8128830194473267
			],
			"translation":[
				0.11071500182151794,
				0.034035682678222656,
				0
			]
		}
	],
	"materials":[
		{
			"alphaMode":"BLEND",
			"doubleSided":true,
			"name":"plastic",
			"pbrMetallicRoughness":{
				"baseColorFactor":[
					0.20258979499340057,
					0.20258979499340057,
					0.20258979499340057,
					0.07000000029802322
				],
				"metallicFactor":0,
				"roughnessFactor":0.11959654092788696
			}
		},
		{
			"doubleSided":true,
			"name":"cover front",
			"pbrMetallicRoughness":{
				"baseColorTexture":{
					"index":0
				},
				"metallicFactor":0,
				"roughnessFactor":0.5
			}
		},
		{
			"doubleSided":true,
			"name":"cover back",
			"pbrMetallicRoughness":{
				"baseColorTexture":{
					"index":1
				},
				"metallicFactor":0,
				"roughnessFactor":0.5
			}
		},
		{
			"doubleSided":true,
			"name":"Material.002",
			"pbrMetallicRoughness":{
				"baseColorFactor":[
					0.006616567261517048,
					0.006616567261517048,
					0.006616567261517048,
					1
				],
				"metallicFactor":0,
				"roughnessFactor":0.5
			}
		},
		{
			"doubleSided":true,
			"name":"cd image",
			"pbrMetallicRoughness":{
				"baseColorTexture":{
					"index":2
				},
				"metallicFactor":0,
				"roughnessFactor":0.5
			}
		}
	],
	"meshes":[
		{
			"name":"Cube.001",
			"primitives":[
				{
					"attributes":{
						"POSITION":0,
						"NORMAL":1,
						"TEXCOORD_0":2
					},
					"indices":3,
					"material":0
				}
			]
		},
		{
			"name":"Plane.001",
			"primitives":[
				{
					"attributes":{
						"POSITION":4,
						"NORMAL":5,
						"TEXCOORD_0":6
					},
					"indices":7,
					"material":1
				}
			]
		},
		{
			"name":"Cube.002",
			"primitives":[
				{
					"attributes":{
						"POSITION":8,
						"NORMAL":9,
						"TEXCOORD_0":10
					},
					"indices":11,
					"material":0
				}
			]
		},
		{
			"name":"Plane.005",
			"primitives":[
				{
					"attributes":{
						"POSITION":12,
						"NORMAL":13,
						"TEXCOORD_0":14
					},
					"indices":7,
					"material":2
				}
			]
		},
		{
			"name":"Cube.008",
			"primitives":[
				{
					"attributes":{
						"POSITION":15,
						"NORMAL":16,
						"TEXCOORD_0":17
					},
					"indices":18,
					"material":3
				}
			]
		},
		{
			"name":"Cylinder.003",
			"primitives":[
				{
					"attributes":{
						"POSITION":19,
						"NORMAL":20,
						"TEXCOORD_0":21
					},
					"indices":22,
					"material":0
				}
			]
		},
		{
			"name":"Plane.002",
			"primitives":[
				{
					"attributes":{
						"POSITION":23,
						"NORMAL":24,
						"TEXCOORD_0":25
					},
					"indices":26,
					"material":4
				}
			]
		}
	],
	"textures":[
		{
			"sampler":0,
			"source":0
		},
		{
			"sampler":0,
			"source":1
		},
		{
			"sampler":0,
			"source":2
		}
	],
	"images":[
		{
			"mimeType":"image/png",
			"name":"image3",
			"uri":"image3.png"
		},
		{
			"mimeType":"image/png",
			"name":"image2",
			"uri":"image2.png"
		},
		{
			"mimeType":"image/png",
			"name":"image1",
			"uri":"image1.png"
		}
	],
	"accessors":[
		{
			"bufferView":0,
			"componentType":5126,
			"count":83,
			"max":[
				1.000000238418579,
				1,
				0.9999998807907104
			],
			"min":[
				-1.000000238418579,
				-1,
				-0.9999998807907104
			],
			"type":"VEC3"
		},
		{
			"bufferView":1,
			"componentType":5126,
			"count":83,
			"type":"VEC3"
		},
		{
			"bufferView":2,
			"componentType":5126,
			"count":83,
			"type":"VEC2"
		},
		{
			"bufferView":3,
			"componentType":5123,
			"count":174,
			"type":"SCALAR"
		},
		{
			"bufferView":4,
			"componentType":5126,
			"count":4,
			"max":[
				1,
				-0.11779499053955078,
				1.0000778436660767
			],
			"min":[
				-1.0000005960464478,
				-0.11779499053955078,
				-1.0000778436660767
			],
			"type":"VEC3"
		},
		{
			"bufferView":5,
			"componentType":5126,
			"count":4,
			"type":"VEC3"
		},
		{
			"bufferView":6,
			"componentType":5126,
			"count":4,
			"type":"VEC2"
		},
		{
			"bufferView":7,
			"componentType":5123,
			"count":6,
			"type":"SCALAR"
		},
		{
			"bufferView":8,
			"componentType":5126,
			"count":98,
			"max":[
				1.010471224784851,
				1,
				1.0119048357009888
			],
			"min":[
				-1,
				-1,
				-1.0119048357009888
			],
			"type":"VEC3"
		},
		{
			"bufferView":9,
			"componentType":5126,
			"count":98,
			"type":"VEC3"
		},
		{
			"bufferView":10,
			"componentType":5126,
			"count":98,
			"type":"VEC2"
		},
		{
			"bufferView":11,
			"componentType":5123,
			"count":198,
			"type":"SCALAR"
		},
		{
			"bufferView":12,
			"componentType":5126,
			"count":4,
			"max":[
				1,
				-0.11413392424583435,
				1.0000001192092896
			],
			"min":[
				-1,
				-0.11413408815860748,
				-1.0000001192092896
			],
			"type":"VEC3"
		},
		{
			"bufferView":13,
			"componentType":5126,
			"count":4,
			"type":"VEC3"
		},
		{
			"bufferView":14,
			"componentType":5126,
			"count":4,
			"type":"VEC2"
		},
		{
			"bufferView":15,
			"componentType":5126,
			"count":752,
			"max":[
				1,
				1,
				0.9999998807907104
			],
			"min":[
				-1,
				-1,
				-0.9999998807907104
			],
			"type":"VEC3"
		},
		{
			"bufferView":16,
			"componentType":5126,
			"count":752,
			"type":"VEC3"
		},
		{
			"bufferView":17,
			"componentType":5126,
			"count":752,
			"type":"VEC2"
		},
		{
			"bufferView":18,
			"componentType":5123,
			"count":1494,
			"type":"SCALAR"
		},
		{
			"bufferView":19,
			"componentType":5126,
			"count":768,
			"max":[
				1,
				1,
				1
			],
			"min":[
				-1,
				-1,
				-1
			],
			"type":"VEC3"
		},
		{
			"bufferView":20,
			"componentType":5126,
			"count":768,
			"type":"VEC3"
		},
		{
			"bufferView":21,
			"componentType":5126,
			"count":768,
			"type":"VEC2"
		},
		{
			"bufferView":22,
			"componentType":5123,
			"count":1536,
			"type":"SCALAR"
		},
		{
			"bufferView":23,
			"componentType":5126,
			"count":464,
			"max":[
				0.9999999403953552,
				-0.04014625400304794,
				0.9999995231628418
			],
			"min":[
				-0.9999999403953552,
				-0.04014625400304794,
				-0.9999995231628418
			],
			"type":"VEC3"
		},
		{
			"bufferView":24,
			"componentType":5126,
			"count":464,
			"type":"VEC3"
		},
		{
			"bufferView":25,
			"componentType":5126,
			"count":464,
			"type":"VEC2"
		},
		{
			"bufferView":26,
			"componentType":5123,
			"count":1392,
			"type":"SCALAR"
		}
	],
	"bufferViews":[
		{
			"buffer":0,
			"byteLength":996,
			"byteOffset":0,
			"target":34962
		},
		{
			"buffer":0,
			"byteLength":996,
			"byteOffset":996,
			"target":34962
		},
		{
			"buffer":0,
			"byteLength":664,
			"byteOffset":1992,
			"target":34962
		},
		{
			"buffer":0,
			"byteLength":348,
			"byteOffset":2656,
			"target":34963
		},
		{
			"buffer":0,
			"byteLength":48,
			"byteOffset":3004,
			"target":34962
		},
		{
			"buffer":0,
			"byteLength":48,
			"byteOffset":3052,
			"target":34962
		},
		{
			"buffer":0,
			"byteLength":32,
			"byteOffset":3100,
			"target":34962
		},
		{
			"buffer":0,
			"byteLength":12,
			"byteOffset":3132,
			"target":34963
		},
		{
			"buffer":0,
			"byteLength":1176,
			"byteOffset":3144,
			"target":34962
		},
		{
			"buffer":0,
			"byteLength":1176,
			"byteOffset":4320,
			"target":34962
		},
		{
			"buffer":0,
			"byteLength":784,
			"byteOffset":5496,
			"target":34962
		},
		{
			"buffer":0,
			"byteLength":396,
			"byteOffset":6280,
			"target":34963
		},
		{
			"buffer":0,
			"byteLength":48,
			"byteOffset":6676,
			"target":34962
		},
		{
			"buffer":0,
			"byteLength":48,
			"byteOffset":6724,
			"target":34962
		},
		{
			"buffer":0,
			"byteLength":32,
			"byteOffset":6772,
			"target":34962
		},
		{
			"buffer":0,
			"byteLength":9024,
			"byteOffset":6804,
			"target":34962
		},
		{
			"buffer":0,
			"byteLength":9024,
			"byteOffset":15828,
			"target":34962
		},
		{
			"buffer":0,
			"byteLength":6016,
			"byteOffset":24852,
			"target":34962
		},
		{
			"buffer":0,
			"byteLength":2988,
			"byteOffset":30868,
			"target":34963
		},
		{
			"buffer":0,
			"byteLength":9216,
			"byteOffset":33856,
			"target":34962
		},
		{
			"buffer":0,
			"byteLength":9216,
			"byteOffset":43072,
			"target":34962
		},
		{
			"buffer":0,
			"byteLength":6144,
			"byteOffset":52288,
			"target":34962
		},
		{
			"buffer":0,
			"byteLength":3072,
			"byteOffset":58432,
			"target":34963
		},
		{
			"buffer":0,
			"byteLength":5568,
			"byteOffset":61504,
			"target":34962
		},
		{
			"buffer":0,
			"byteLength":5568,
			"byteOffset":67072,
			"target":34962
		},
		{
			"buffer":0,
			"byteLength":3712,
			"byteOffset":72640,
			"target":34962
		},
		{
			"buffer":0,
			"byteLength":2784,
			"byteOffset":76352,
			"target":34963
		}
	],
	"samplers":[
		{
			"magFilter":9729,
			"minFilter":9987
		}
	],
	"buffers":[
		{
			"byteLength":79136,
			"uri":"newcdbinro.bin"
		}
	]
}
