<svg width="32" height="32" viewBox="0 0 32 32" fill="none" xmlns="http://www.w3.org/2000/svg">
<path d="M6 8V24H8V8H6ZM11 20C11 19.4477 11.4477 19 12 19C12.5523 19 13 19.4477 13 20V21H15C15.5523 21 16 21.4477 16 22C16 22.5523 15.5523 23 15 23H12C11.4477 23 11 22.5523 11 22V20ZM23 14.5V11H18C17.4477 11 17 10.5523 17 10C17 9.44772 17.4477 9 18 9H24L24.1025 9.00488C24.6067 9.05621 25 9.48232 25 10V14.5C25 15.0523 24.5523 15.5 24 15.5C23.4477 15.5 23 15.0523 23 14.5ZM10 24H26V8H10V24ZM28 24C28 25.1046 27.1046 26 26 26H6C4.89543 26 4 25.1046 4 24V8C4 6.89543 4.89543 6 6 6H26C27.1046 6 28 6.89543 28 8V24Z" fill="white"/>
</svg>
