<svg width="32" height="32" viewBox="0 0 32 32" fill="none" xmlns="http://www.w3.org/2000/svg">
<path fill-rule="evenodd" clip-rule="evenodd" d="M10.8447 16.1975C10.8447 17.7599 10.3725 19.2492 9.50488 20.5441L9.50098 20.55C8.65321 21.7793 7.45298 22.7481 6.06348 23.3156L6.0625 23.3146C5.5557 23.5223 5.00015 23.1509 5 22.6027V20.0158C5 19.7585 5.13454 19.5229 5.35059 19.3889C6.40485 18.6628 7.02629 17.4897 7.02637 16.2199C7.02637 15.1513 6.63313 14.1937 5.95605 13.4943L5.94922 13.4875L5.94238 13.4797C5.77778 13.2961 5.57162 13.1255 5.36328 12.9924L5.35449 12.9865C5.13338 12.8385 5.00013 12.5905 5 12.3244V9.77069C5 9.22732 5.54569 8.85745 6.04883 9.05292L6.0498 9.05194C6.05252 9.05296 6.05491 9.05483 6.05762 9.05585C6.06008 9.05684 6.06297 9.05679 6.06543 9.0578L6.06445 9.05878C6.95174 9.39263 7.72832 9.88694 8.4082 10.507L8.69531 10.7814L8.69824 10.7844L8.95215 11.0578C10.1856 12.4538 10.8447 14.2798 10.8447 16.1975Z" fill="white"/>
<path fill-rule="evenodd" clip-rule="evenodd" d="M21.1553 16.1965C21.1553 17.7589 21.6275 19.2482 22.4951 20.5432L22.499 20.549C23.3468 21.7784 24.547 22.7471 25.9365 23.3146L25.9375 23.3137C26.4443 23.5213 26.9999 23.1499 27 22.6017V20.0148C27 19.7575 26.8655 19.5219 26.6494 19.3879C25.5951 18.6618 24.9737 17.4887 24.9736 16.2189C24.9736 15.1503 25.3669 14.1927 26.0439 13.4933L26.0508 13.4865L26.0576 13.4787C26.2222 13.2951 26.4284 13.1245 26.6367 12.9914L26.6455 12.9855C26.8666 12.8375 26.9999 12.5895 27 12.3234V9.76972C27 9.22634 26.4543 8.85648 25.9512 9.05194L25.9502 9.05097C25.9475 9.05198 25.9451 9.05386 25.9424 9.05487C25.9399 9.05586 25.937 9.05581 25.9346 9.05683L25.9355 9.0578C25.0483 9.39165 24.2717 9.88596 23.5918 10.506L23.3047 10.7805L23.3018 10.7834L23.0479 11.0568C21.8144 12.4528 21.1553 14.2788 21.1553 16.1965Z" fill="white"/>
<path fill-rule="evenodd" clip-rule="evenodd" d="M16.1756 10.8447C14.6131 10.8447 13.1239 10.3725 11.8289 9.50488L11.8231 9.50098C10.5937 8.65321 9.62495 7.45298 9.05743 6.06348L9.05841 6.0625C8.85078 5.5557 9.22214 5.00015 9.77032 5L12.3572 5C12.6146 5 12.8502 5.13454 12.9842 5.35059C13.7102 6.40485 14.8834 7.02629 16.1531 7.02637C17.2218 7.02637 18.1793 6.63313 18.8787 5.95605L18.8856 5.94922L18.8934 5.94238C19.0769 5.77778 19.2476 5.57162 19.3807 5.36328L19.3865 5.35449C19.5345 5.13338 19.7826 5.00013 20.0486 5L22.6024 5C23.1457 5 23.5156 5.54569 23.3201 6.04883L23.3211 6.0498C23.3201 6.05252 23.3182 6.05491 23.3172 6.05762C23.3162 6.06008 23.3163 6.06297 23.3152 6.06543L23.3143 6.06445C22.9804 6.95174 22.4861 7.72832 21.866 8.4082L21.5916 8.69531L21.5887 8.69824L21.3152 8.95215C19.9193 10.1856 18.0932 10.8447 16.1756 10.8447Z" fill="white"/>
<path fill-rule="evenodd" clip-rule="evenodd" d="M16.1975 21.1553C17.7599 21.1553 19.2492 21.6275 20.5441 22.4951L20.55 22.499C21.7793 23.3468 22.7481 24.547 23.3156 25.9365L23.3146 25.9375C23.5223 26.4443 23.1509 26.9999 22.6027 27L20.0158 27C19.7585 27 19.5229 26.8655 19.3889 26.6494C18.6628 25.5951 17.4897 24.9737 16.2199 24.9736C15.1513 24.9736 14.1937 25.3669 13.4943 26.0439L13.4875 26.0508L13.4797 26.0576C13.2961 26.2222 13.1255 26.4284 12.9924 26.6367L12.9865 26.6455C12.8385 26.8666 12.5905 26.9999 12.3244 27L9.77069 27C9.22732 27 8.85745 26.4543 9.05292 25.9512L9.05194 25.9502C9.05296 25.9475 9.05483 25.9451 9.05585 25.9424C9.05684 25.9399 9.05679 25.937 9.0578 25.9346L9.05878 25.9355C9.39263 25.0483 9.88694 24.2717 10.507 23.5918L10.7814 23.3047L10.7844 23.3018L11.0578 23.0479C12.4538 21.8144 14.2798 21.1553 16.1975 21.1553Z" fill="white"/>
<path d="M19 16.0004C18.9999 17.6507 17.6491 19 15.9899 19C14.3263 18.9998 13.0001 17.646 13 16.0004C13 14.35 14.3508 13 16.0101 13H16.0163L16.1685 13.0061C17.7306 13.1063 19 14.3982 19 16.0004Z" fill="white"/>
</svg>
